<?xml version="1.0" encoding="UTF-8"?>
<svg version="1.1" xmlns="http://www.w3.org/2000/svg" width="75" height="69">
<path d="M0 0 C24.75 0 49.5 0 75 0 C75 22.77 75 45.54 75 69 C50.25 69 25.5 69 0 69 C0 46.23 0 23.46 0 0 Z " fill="#FCFEFD" transform="translate(0,0)"/>
<path d="M0 0 C5.59754082 4.45925684 8.3296404 9.75508522 9.19921875 16.8359375 C9.49370144 23.79025959 7.88867926 28.87308014 3.92578125 34.609375 C1.76750997 36.89772067 -0.5290841 38.77054566 -3.07421875 40.609375 C-3.79609375 41.2075 -4.51796875 41.805625 -5.26171875 42.421875 C-10.11663243 45.60268052 -16.51667052 45.24242023 -22.07421875 44.609375 C-29.51477727 42.33143577 -34.27720278 38.33873993 -38.07421875 31.609375 C-41.49968988 25.13614629 -42.3299662 18.37173797 -40.453125 11.25390625 C-37.751746 4.27834536 -32.87582133 -1.36310362 -26.26171875 -4.890625 C-16.51227518 -6.41994948 -8.33492968 -5.58801312 0 0 Z " fill="#1FA550" transform="translate(57.07421875,12.390625)"/>
<path d="M0 0 C0.99 0 1.98 0 3 0 C5.42832443 5.37145363 5.68369178 10.18007372 5 16 C3.21049365 19.85432136 1.73665715 21.49773376 -1.75 23.875 C-5.88530917 25.30645317 -8.64015629 25.43598437 -13 25 C-13.66 24.01 -14.32 23.02 -15 22 C-15.99 21.67 -16.98 21.34 -18 21 C-18 22.32 -18 23.64 -18 25 C-18.66 25 -19.32 25 -20 25 C-20.042721 23.33388095 -20.04063832 21.66617115 -20 20 C-19.67 19.67 -19.34 19.34 -19 19 C-18.79700371 16.77606292 -18.68113656 14.55474556 -18.57421875 12.32421875 C-17.79095286 9.1538568 -16.5510616 8.0144443 -14 6 C-11.0546875 4.734375 -11.0546875 4.734375 -7.875 3.75 C-6.29332031 3.24726563 -6.29332031 3.24726563 -4.6796875 2.734375 C-2 2 -2 2 0 2 C0 1.34 0 0.68 0 0 Z " fill="#B9E3C8" transform="translate(48,18)"/>
<path d="M0 0 C1.60564871 3.21129742 1.48378603 6.51674056 1 10 C-0.875 13.5 -0.875 13.5 -3 16 C-3.66 16 -4.32 16 -5 16 C-5 16.66 -5 17.32 -5 18 C-7.97 18 -10.94 18 -14 18 C-14.33 17.01 -14.66 16.02 -15 15 C-13.20963542 14.05598958 -11.41927083 13.11197917 -9.62890625 12.16796875 C-7.67732013 11.00980201 -7.67732013 11.00980201 -7 8 C-8.6396875 8.99 -8.6396875 8.99 -10.3125 10 C-12.93707538 11.58464929 -13.8256378 12 -17 12 C-17.36646707 7.48023952 -17.36646707 7.48023952 -15.8046875 5.43359375 C-13.59061771 3.67479805 -11.66162868 3.10517882 -8.9375 2.375 C-0.24193548 0 -0.24193548 0 0 0 Z " fill="#27A856" transform="translate(50,22)"/>
<path d="M0 0 C0.99 0 1.98 0 3 0 C5.42693873 5.36838848 5.68985083 10.18310968 5 16 C3.3125 19.625 3.3125 19.625 1 22 C-1.75 22.875 -1.75 22.875 -4 23 C-2.87952194 19.63856582 -1.50292817 18.42471166 1 16 C2.32229189 13.35541621 2.09677194 11.32238699 2.0625 8.375 C2.04896484 6.87066406 2.04896484 6.87066406 2.03515625 5.3359375 C2.02355469 4.56507812 2.01195312 3.79421875 2 3 C1.34 3 0.68 3 0 3 C0 2.01 0 1.02 0 0 Z " fill="#E1F3E7" transform="translate(48,18)"/>
<path d="M0 0 C0.66 0.33 1.32 0.66 2 1 C2 1.99 2 2.98 2 4 C3.918125 3.938125 3.918125 3.938125 5.875 3.875 C8.0546875 3.8046875 8.0546875 3.8046875 10 4 C10.66 4.66 11.32 5.32 12 6 C8.27923222 7.24025593 4.88506936 7.76082608 1 7 C-1 4.5 -1 4.5 -2 2 C-1.34 1.34 -0.68 0.68 0 0 Z " fill="#BDE4CB" transform="translate(34,36)"/>
<path d="M0 0 C0.33 0 0.66 0 1 0 C1 1.98 1 3.96 1 6 C2.32 6.33 3.64 6.66 5 7 C1.25 10 1.25 10 -1 10 C-1 11.32 -1 12.64 -1 14 C-1.66 14 -2.32 14 -3 14 C-3.48990279 8.93767116 -1.7106322 4.67369154 0 0 Z " fill="#E9F6ED" transform="translate(31,29)"/>
<path d="M0 0 C0.33 1.32 0.66 2.64 1 4 C2.093125 3.525625 3.18625 3.05125 4.3125 2.5625 C6.53476255 1.59812191 8.69500485 0.76833172 11 0 C10.6875 1.875 10.6875 1.875 10 4 C6.1496895 6.56687367 4.41430237 5.83288724 0 5 C0 3.35 0 1.7 0 0 Z " fill="#B8E2C7" transform="translate(32,30)"/>
<path d="M0 0 C0.66 1.32 1.32 2.64 2 4 C0.35 5.65 -1.3 7.3 -3 9 C-3.99 8.67 -4.98 8.34 -6 8 C-4.73046875 6.50260417 -3.4609375 5.00520833 -2.19140625 3.5078125 C-0.9121848 1.99405921 -0.9121848 1.99405921 0 0 Z " fill="#D0ECDA" transform="translate(50,32)"/>
<path d="M0 0 C-2.85276137 2.93200474 -5.65079784 5.64315404 -9 8 C-8.64005447 5.3364031 -8.28838998 3.41816548 -6.75 1.1875 C-4.41988723 -0.39364795 -2.75498245 -0.22337696 0 0 Z " fill="#CBEAD6" transform="translate(39,24)"/>
</svg>
